<svg class="main-svg" xmlns="http://www.w3.org/2000/svg" xmlns:xlink="http://www.w3.org/1999/xlink" width="700" height="500" style="" viewBox="0 0 700 500"><rect x="0" y="0" width="700" height="500" style="fill: rgb(255, 255, 255); fill-opacity: 1;"/><defs id="defs-8562b0"><g class="clips"><clipPath id="clip8562b0xyplot" class="plotclip"><rect width="476.58" height="320"/></clipPath><clipPath id="clip8562b0xy2plot" class="plotclip"><rect width="476.58" height="320"/></clipPath><clipPath class="axesclip" id="clip8562b0x"><rect x="80" y="0" width="476.58" height="500"/></clipPath><clipPath class="axesclip" id="clip8562b0y"><rect x="0" y="100" width="700" height="320"/></clipPath><clipPath class="axesclip" id="clip8562b0xy"><rect x="80" y="100" width="476.58" height="320"/></clipPath><clipPath class="axesclip" id="clip8562b0y2"><rect x="0" y="100" width="700" height="320"/></clipPath><clipPath class="axesclip" id="clip8562b0xy2"><rect x="80" y="100" width="476.58" height="320"/></clipPath></g><g class="gradients"/><g class="patterns"/></defs><g class="bglayer"/><g class="layer-below"><g class="imagelayer"/><g class="shapelayer"/></g><g class="cartesianlayer"><g class="subplot xy"><g class="layer-subplot"><g class="shapelayer"/><g class="imagelayer"/></g><g class="minor-gridlayer"><g class="x"/><g class="y"/><g class="y2"/></g><g class="gridlayer"><g class="x"><path class="xgrid crisp" transform="translate(159.20999999999998,0)" d="M0,100v320" style="stroke: rgb(235, 240, 248); stroke-opacity: 1; stroke-width: 1px;"/><path class="xgrid crisp" transform="translate(239.3,0)" d="M0,100v320" style="stroke: rgb(235, 240, 248); stroke-opacity: 1; stroke-width: 1px;"/><path class="xgrid crisp" transform="translate(318.07,0)" d="M0,100v320" style="stroke: rgb(235, 240, 248); stroke-opacity: 1; stroke-width: 1px;"/><path class="xgrid crisp" transform="translate(398.16,0)" d="M0,100v320" style="stroke: rgb(235, 240, 248); stroke-opacity: 1; stroke-width: 1px;"/><path class="xgrid crisp" transform="translate(476.93,0)" d="M0,100v320" style="stroke: rgb(235, 240, 248); stroke-opacity: 1; stroke-width: 1px;"/></g><g class="y"><path class="ygrid crisp" transform="translate(0,386.46)" d="M80,0h476.58" style="stroke: rgb(235, 240, 248); stroke-opacity: 1; stroke-width: 1px;"/><path class="ygrid crisp" transform="translate(0,302.15)" d="M80,0h476.58" style="stroke: rgb(235, 240, 248); stroke-opacity: 1; stroke-width: 1px;"/><path class="ygrid crisp" transform="translate(0,260)" d="M80,0h476.58" style="stroke: rgb(235, 240, 248); stroke-opacity: 1; stroke-width: 1px;"/><path class="ygrid crisp" transform="translate(0,217.85)" d="M80,0h476.58" style="stroke: rgb(235, 240, 248); stroke-opacity: 1; stroke-width: 1px;"/><path class="ygrid crisp" transform="translate(0,175.69)" d="M80,0h476.58" style="stroke: rgb(235, 240, 248); stroke-opacity: 1; stroke-width: 1px;"/><path class="ygrid crisp" transform="translate(0,133.54)" d="M80,0h476.58" style="stroke: rgb(235, 240, 248); stroke-opacity: 1; stroke-width: 1px;"/></g><g class="y2"/></g><g class="zerolinelayer"><path class="yzl zl crisp" transform="translate(0,344.31)" d="M80,0h476.58" style="stroke: rgb(235, 240, 248); stroke-opacity: 1; stroke-width: 2px;"/></g><path class="xlines-below"/><path class="ylines-below"/><g class="overlines-below"><path class="xy2-x"/><path class="xy2-y"/></g><g class="xaxislayer-below"/><g class="yaxislayer-below"/><g class="overaxes-below"><g class="xy2-x"/><g class="xy2-y"/></g><g class="plot" transform="translate(80,100)" clip-path="url(#clip8562b0xyplot)"><g class="scatterlayer mlayer"><g class="trace scatter trace2b5f4f" style="stroke-miterlimit: 2; opacity: 1;"><g class="fills"/><g class="errorbars"/><g class="lines"><path class="js-line" d="M0,239.46L9.14,180.63L9.58,178.34L13.93,159.61L14.36,158.2L17.41,150.92L17.84,150.27L20.02,148.48L20.46,148.42L22.2,149.19L22.63,149.63L24.81,153.26L25.24,154.27L28.29,163.79L28.73,165.48L33.08,186.17L33.51,188.56L40.91,233.79L41.35,236.53L48.31,276.36L48.75,278.44L53.1,295.25L53.53,296.48L56.58,302.55L57.02,303.04L58.76,304L59.19,303.99L60.93,302.96L61.37,302.46L63.54,298.45L63.98,297.36L67.03,287.18L67.46,285.38L71.38,265.8L71.81,263.29L77.91,223.62L78.34,220.58L88.79,152.99L89.22,150.74L93.58,132.41L94.01,131.04L97.06,124.1L97.49,123.49L99.67,121.95L100.1,121.95L101.84,122.91L102.28,123.4L104.46,127.27L104.89,128.32L107.94,138.14L108.37,139.87L112.29,158.51L112.73,160.87L120.99,211.41L121.43,214.12L128.83,254.95L129.26,256.86L133.18,270.58L133.62,271.68L136.23,276.32L136.66,276.76L138.4,277.52L138.84,277.46L140.58,276.24L141.02,275.68L143.19,271.43L143.63,270.3L146.67,259.81L147.11,257.97L151.46,235.53L151.9,232.94L160.17,177.36L160.6,174.33L168.44,125.37L168.87,123.15L173.22,105.23L173.66,103.91L176.7,97.29L177.14,96.74L179.32,95.45L179.75,95.49L181.49,96.65L181.93,97.19L184.1,101.3L184.54,102.4L187.59,112.51L188.02,114.27L192.37,135.59L192.81,138.03L209.35,233.11L209.78,234.84L213.7,246.67L214.13,247.54L216.75,250.74L217.18,250.94L218.92,250.7L219.36,250.4L221.53,247.37L221.97,246.47L224.58,239.11L225.02,237.56L228.93,219.98L229.37,217.66L235.46,179.65L235.9,176.67L247.21,102.34L247.65,100.02L252,80.89L252.44,79.44L255.48,71.83L255.92,71.12L258.09,69.09L258.53,68.98L260.27,69.55L260.7,69.94L262.88,73.33L263.32,74.29L266.36,83.51L266.8,85.16L271.15,105.53L271.59,107.9L279.85,158.43L280.29,161.15L287.69,201.98L288.12,203.89L292.04,217.6L292.48,218.7L295.09,223.35L295.52,223.78L297.26,224.55L297.7,224.49L299.44,223.26L299.88,222.71L302.05,218.46L302.49,217.32L305.53,206.84L305.97,204.99L310.32,182.56L310.76,179.96L318.59,127.42L319.03,124.39L326.42,77.04L326.86,74.68L331.65,53.67L332.08,52.25L335.13,44.98L335.56,44.32L337.74,42.54L338.18,42.48L339.92,43.24L340.35,43.68L342.53,47.32L342.96,48.32L346.01,57.84L346.45,59.53L350.8,80.22L351.23,82.62L358.2,125.09L358.63,127.84L366.47,172.49L366.9,174.51L371.25,190.53L371.69,191.68L374.3,196.6L374.74,197.09L376.91,198.05L377.35,197.94L379.09,196.51L379.52,195.9L381.7,191.42L382.13,190.23L385.18,179.44L385.62,177.56L389.97,154.78L390.4,152.16L397.37,105.5L397.8,102.46L406.51,47.05L406.94,44.79L411.3,26.46L411.73,25.1L414.78,18.15L415.21,17.54L417.39,16.01L417.82,16L419.56,16.96L420,17.45L422.18,21.32L422.61,22.38L425.66,32.19L426.09,33.92L430.01,52.56L430.45,54.93L438.71,105.46L439.15,108.18L446.55,149L446.98,150.92L450.9,164.63L451.34,165.73L453.95,170.37L454.38,170.81L456.12,171.58L456.56,171.52L458.3,170.29L458.74,169.73L460.91,165.49L461.35,164.35L464.39,153.86L464.83,152.02L469.18,129.58L469.62,126.99L476.58,80.54" style="vector-effect: none; fill: none; stroke: rgb(99, 110, 250); stroke-opacity: 1; stroke-width: 2px; opacity: 1;"/></g><g class="points"/><g class="text"/></g></g></g><g class="overplot"><g class="xy2" transform="translate(80,100)" clip-path="url(#clip8562b0xy2plot)"><g class="scatterlayer mlayer"><g class="trace scatter trace519d2f" style="stroke-miterlimit: 2; opacity: 1;"><g class="fills"/><g class="errorbars"/><g class="lines"><path class="js-line" d="M0,160L9.14,64.72L9.58,61.06L13.49,33.87L13.93,31.55L16.97,19.73L17.41,18.69L19.15,16.22L19.59,16.03L20.89,16.48L21.33,16.97L23.07,20.62L23.5,21.94L26.11,33.28L26.55,35.71L30.03,60.17L30.47,63.8L35.69,114.91L36.12,119.65L49.62,261.6L50.05,265.06L53.97,290.08L54.4,292.13L57.45,301.98L57.89,302.72L59.63,304L60.06,303.89L61.37,302.55L61.8,301.77L63.98,295.34L64.41,293.57L67.46,276.86L67.9,273.9L72.25,237.47L72.68,233.25L79.21,162.48L79.65,157.52L87.92,70.42L88.35,66.6L92.7,35.09L93.14,32.69L96.19,20.31L96.62,19.19L98.8,16.11L99.23,16L100.54,16.7L100.97,17.28L102.71,21.26L103.15,22.67L105.76,34.47L106.2,36.98L110.11,65.66L110.55,69.46L116.64,131.68L117.08,136.56L127.96,252.46L128.39,256.2L132.75,286.72L133.18,289L136.23,300.55L136.66,301.54L138.4,303.84L138.84,303.99L140.14,303.41L140.58,302.88L142.32,299.07L142.76,297.7L145.37,286.13L145.8,283.66L149.28,258.94L149.72,255.28L154.51,208.6L154.94,203.91L168.87,57.52L169.31,54.1L173.22,29.39L173.66,27.38L176.27,18.69L176.7,17.82L178.45,16.03L178.88,16.01L180.19,16.97L180.62,17.63L182.36,21.94L182.8,23.43L185.41,35.71L185.84,38.28L189.33,63.8L189.76,67.54L194.98,119.65L195.42,124.43L208.04,258.03L208.48,261.6L212.39,287.88L212.83,290.08L215.88,301.07L216.31,301.98L218.05,303.94L218.49,304L219.79,303.17L220.23,302.55L221.97,298.4L222.4,296.95L225.02,284.91L225.45,282.37L228.93,257.12L229.37,253.4L235.03,196.77L235.46,191.96L248.08,59.28L248.52,55.79L252.44,30.45L252.87,28.36L255.92,18.23L256.35,17.45L258.09,16L258.53,16.06L259.83,17.28L260.27,18.02L262.45,24.24L262.88,25.97L265.93,42.42L266.36,45.35L270.28,77.38L270.71,81.48L276.81,146.39L277.24,151.33L287.25,256.2L287.69,259.83L291.61,286.72L292.04,289L295.09,300.55L295.52,301.54L297.26,303.84L297.7,303.99L299,303.41L299.44,302.88L301.18,299.07L301.62,297.7L304.23,286.13L304.66,283.66L308.14,258.94L308.58,255.28L313.37,208.6L313.8,203.91L327.73,57.52L328.17,54.1L332.08,29.39L332.52,27.38L335.13,18.69L335.56,17.82L337.31,16.03L337.74,16.01L339.05,16.97L339.48,17.63L341.22,21.94L341.66,23.43L344.27,35.71L344.7,38.28L348.19,63.8L348.62,67.54L353.84,119.65L354.28,124.43L366.9,258.03L367.34,261.6L371.25,287.88L371.69,290.08L374.74,301.07L375.17,301.98L376.91,303.94L377.35,304L378.65,303.17L379.09,302.55L380.83,298.4L381.26,296.95L383.88,284.91L384.31,282.37L387.79,257.12L388.23,253.4L393.89,196.77L394.32,191.96L406.94,59.28L407.38,55.79L411.3,30.45L411.73,28.36L414.78,18.23L415.21,17.45L416.95,16L417.39,16.06L418.69,17.28L419.13,18.02L421.31,24.24L421.74,25.97L424.79,42.42L425.22,45.35L429.14,77.38L429.57,81.48L435.67,146.39L436.1,151.33L446.11,256.2L446.55,259.83L450.47,286.72L450.9,289L453.95,300.55L454.38,301.54L456.12,303.84L456.56,303.99L457.86,303.41L458.3,302.88L460.04,299.07L460.48,297.7L463.09,286.13L463.52,283.66L467,258.94L467.44,255.28L472.23,208.6L472.66,203.91L476.58,160" style="vector-effect: none; fill: none; stroke: rgb(239, 85, 59); stroke-opacity: 1; stroke-width: 2px; opacity: 1;"/></g><g class="points"/><g class="text"/></g></g></g></g><path class="xlines-above crisp" d="M0,0" style="fill: none;"/><path class="ylines-above crisp" d="M0,0" style="fill: none;"/><g class="overlines-above"><path class="xy2-x crisp" d="M0,0" style="fill: none;"/><path class="xy2-y crisp" d="M0,0" style="fill: none;"/></g><g class="xaxislayer-above"><g class="xtick"><text text-anchor="middle" x="0" y="433" transform="translate(80,0)" style="font-family: 'Open Sans', verdana, arial, sans-serif; font-size: 12px; fill: rgb(42, 63, 95); fill-opacity: 1; white-space: pre; opacity: 1;">Jan 2020</text></g><g class="xtick"><text text-anchor="middle" x="0" y="433" style="font-family: 'Open Sans', verdana, arial, sans-serif; font-size: 12px; fill: rgb(42, 63, 95); fill-opacity: 1; white-space: pre; opacity: 1;" transform="translate(159.20999999999998,0)">Jul 2020</text></g><g class="xtick"><text text-anchor="middle" x="0" y="433" style="font-family: 'Open Sans', verdana, arial, sans-serif; font-size: 12px; fill: rgb(42, 63, 95); fill-opacity: 1; white-space: pre; opacity: 1;" transform="translate(239.3,0)">Jan 2021</text></g><g class="xtick"><text text-anchor="middle" x="0" y="433" style="font-family: 'Open Sans', verdana, arial, sans-serif; font-size: 12px; fill: rgb(42, 63, 95); fill-opacity: 1; white-space: pre; opacity: 1;" transform="translate(318.07,0)">Jul 2021</text></g><g class="xtick"><text text-anchor="middle" x="0" y="433" style="font-family: 'Open Sans', verdana, arial, sans-serif; font-size: 12px; fill: rgb(42, 63, 95); fill-opacity: 1; white-space: pre; opacity: 1;" transform="translate(398.16,0)">Jan 2022</text></g><g class="xtick"><text text-anchor="middle" x="0" y="433" style="font-family: 'Open Sans', verdana, arial, sans-serif; font-size: 12px; fill: rgb(42, 63, 95); fill-opacity: 1; white-space: pre; opacity: 1;" transform="translate(476.93,0)">Jul 2022</text></g></g><g class="yaxislayer-above"><g class="ytick"><text text-anchor="end" x="79" y="4.199999999999999" transform="translate(0,386.46)" style="font-family: 'Open Sans', verdana, arial, sans-serif; font-size: 12px; fill: rgb(42, 63, 95); fill-opacity: 1; white-space: pre; opacity: 1;">−0.5</text></g><g class="ytick"><text text-anchor="end" x="79" y="4.199999999999999" style="font-family: 'Open Sans', verdana, arial, sans-serif; font-size: 12px; fill: rgb(42, 63, 95); fill-opacity: 1; white-space: pre; opacity: 1;" transform="translate(0,344.31)">0</text></g><g class="ytick"><text text-anchor="end" x="79" y="4.199999999999999" style="font-family: 'Open Sans', verdana, arial, sans-serif; font-size: 12px; fill: rgb(42, 63, 95); fill-opacity: 1; white-space: pre; opacity: 1;" transform="translate(0,302.15)">0.5</text></g><g class="ytick"><text text-anchor="end" x="79" y="4.199999999999999" style="font-family: 'Open Sans', verdana, arial, sans-serif; font-size: 12px; fill: rgb(42, 63, 95); fill-opacity: 1; white-space: pre; opacity: 1;" transform="translate(0,260)">1</text></g><g class="ytick"><text text-anchor="end" x="79" y="4.199999999999999" style="font-family: 'Open Sans', verdana, arial, sans-serif; font-size: 12px; fill: rgb(42, 63, 95); fill-opacity: 1; white-space: pre; opacity: 1;" transform="translate(0,217.85)">1.5</text></g><g class="ytick"><text text-anchor="end" x="79" y="4.199999999999999" style="font-family: 'Open Sans', verdana, arial, sans-serif; font-size: 12px; fill: rgb(42, 63, 95); fill-opacity: 1; white-space: pre; opacity: 1;" transform="translate(0,175.69)">2</text></g><g class="ytick"><text text-anchor="end" x="79" y="4.199999999999999" style="font-family: 'Open Sans', verdana, arial, sans-serif; font-size: 12px; fill: rgb(42, 63, 95); fill-opacity: 1; white-space: pre; opacity: 1;" transform="translate(0,133.54)">2.5</text></g></g><g class="overaxes-above"><g class="xy2-x"/><g class="xy2-y"><g class="y2tick"><text text-anchor="start" x="557.5799999999999" y="4.199999999999999" transform="translate(0,404)" style="font-family: 'Open Sans', verdana, arial, sans-serif; font-size: 12px; fill: rgb(42, 63, 95); fill-opacity: 1; white-space: pre; opacity: 1;">−0.01</text></g><g class="y2tick"><text text-anchor="start" x="557.5799999999999" y="4.199999999999999" style="font-family: 'Open Sans', verdana, arial, sans-serif; font-size: 12px; fill: rgb(42, 63, 95); fill-opacity: 1; white-space: pre; opacity: 1;" transform="translate(0,332)">−0.005</text></g><g class="y2tick"><text text-anchor="start" x="557.5799999999999" y="4.199999999999999" style="font-family: 'Open Sans', verdana, arial, sans-serif; font-size: 12px; fill: rgb(42, 63, 95); fill-opacity: 1; white-space: pre; opacity: 1;" transform="translate(0,260)">0</text></g><g class="y2tick"><text text-anchor="start" x="557.5799999999999" y="4.199999999999999" style="font-family: 'Open Sans', verdana, arial, sans-serif; font-size: 12px; fill: rgb(42, 63, 95); fill-opacity: 1; white-space: pre; opacity: 1;" transform="translate(0,188)">0.005</text></g><g class="y2tick"><text text-anchor="start" x="557.5799999999999" y="4.199999999999999" style="font-family: 'Open Sans', verdana, arial, sans-serif; font-size: 12px; fill: rgb(42, 63, 95); fill-opacity: 1; white-space: pre; opacity: 1;" transform="translate(0,116)">0.01</text></g></g></g></g><g class="subplot xy2"/></g><g class="polarlayer"/><g class="smithlayer"/><g class="ternarylayer"/><g class="geolayer"/><g class="funnelarealayer"/><g class="pielayer"/><g class="iciclelayer"/><g class="treemaplayer"/><g class="sunburstlayer"/><g class="glimages"/><defs id="topdefs-8562b0"><g class="clips"/><clipPath id="legend8562b0"><rect width="91" height="48" x="0" y="0"/></clipPath></defs><g class="layer-above"><g class="imagelayer"/><g class="shapelayer"/></g><g class="infolayer"><g class="legend" pointer-events="all" transform="translate(597.14,100)"><rect class="bg" shape-rendering="crispEdges" width="91" height="48" x="0" y="0" style="stroke: rgb(68, 68, 68); stroke-opacity: 1; fill: rgb(255, 255, 255); fill-opacity: 1; stroke-width: 0px;"/><g class="scrollbox" transform="" clip-path="url(#legend8562b0)"><g class="groups"><g class="traces" transform="translate(0,14.5)" style="opacity: 1;"><text class="legendtext" text-anchor="start" x="40" y="4.680000000000001" style="font-family: 'Open Sans', verdana, arial, sans-serif; font-size: 12px; fill: rgb(42, 63, 95); fill-opacity: 1; white-space: pre;">sinoid_0</text><g class="layers" style="opacity: 1;"><g class="legendfill"/><g class="legendlines"><path class="js-line" d="M5,0h30" style="fill: none; stroke: rgb(99, 110, 250); stroke-opacity: 1; stroke-width: 2px;"/></g><g class="legendsymbols"><g class="legendpoints"/></g></g><rect class="legendtoggle" x="0" y="-9.5" width="85.03125" height="19" style="fill: rgb(0, 0, 0); fill-opacity: 0;"/></g><g class="traces" transform="translate(0,33.5)" style="opacity: 1;"><text class="legendtext" text-anchor="start" x="40" y="4.680000000000001" style="font-family: 'Open Sans', verdana, arial, sans-serif; font-size: 12px; fill: rgb(42, 63, 95); fill-opacity: 1; white-space: pre;">sinoid_9</text><g class="layers" style="opacity: 1;"><g class="legendfill"/><g class="legendlines"><path class="js-line" d="M5,0h30" style="fill: none; stroke: rgb(239, 85, 59); stroke-opacity: 1; stroke-width: 2px;"/></g><g class="legendsymbols"><g class="legendpoints"/></g></g><rect class="legendtoggle" x="0" y="-9.5" width="85.03125" height="19" style="fill: rgb(0, 0, 0); fill-opacity: 0;"/></g></g></g><rect class="scrollbar" rx="20" ry="3" width="0" height="0" x="0" y="0" style="fill: rgb(128, 139, 164); fill-opacity: 1;"/></g><g class="g-gtitle"/><g class="g-xtitle"/><g class="g-ytitle"><text class="ytitle" transform="rotate(-90,30.996875000000003,260)" x="30.996875000000003" y="260" text-anchor="middle" style="font-family: 'Open Sans', verdana, arial, sans-serif; font-size: 14px; fill: rgb(42, 63, 95); opacity: 1; font-weight: normal; white-space: pre;">sinoid_0</text></g><g class="g-y2title"><text class="y2title" transform="rotate(-90,619.253125,260)" x="619.253125" y="260" text-anchor="middle" style="font-family: 'Open Sans', verdana, arial, sans-serif; font-size: 14px; fill: rgb(42, 63, 95); opacity: 1; font-weight: normal; white-space: pre;">sinoid_9</text></g></g></svg>